# AST/ASF file generated using VICON BodyLanguage
# -----------------------------------------------
:version 1.10
:name VICON
:units
  mass 1.0
  length 0.45
  angle deg
:documentation
   .ast/.asf automatically generated from VICON data using
   VICON BodyBuilder and BodyLanguage model FoxedUp or BRILLIANT.MOD
:root
   order TX TY TZ RX RY RZ
   axis XYZ
   position 0 0 0  
   orientation 0 0 0 
:bonedata
  begin
     id 1 
     name lhipjoint
     direction 0.645893 -0.654526 0.392961 
     length 2.38111 
     axis 0 0 0  XYZ
  end
  begin
     id 2 
     name lfemur
     direction 0.34202 -0.939693 0  
     length 6.6822  
     axis 0 0 20  XYZ
    dof rx ry rz
    limits (-160.0 20.0)
           (-70.0 70.0)
           (-60.0 70.0)
  end
  begin
     id 3 
     name ltibia
     direction 0.34202 -0.939693 0   
     length 6.93904   
     axis 0 0 20   XYZ
    dof rx
    limits (-10.0 170.0)
  end
  begin
     id 4 
     name lfoot
     direction 0.0694967 -0.190941 0.979138   
     length 2.13616   
     axis -90 7.62852e-016 20   XYZ
    dof rx rz
    limits (-45.0 90.0)
           (-70.0 20.0)
  end
  begin
     id 5 
     name ltoes
     direction 1.535e-011 -4.2202e-011 1   
     length 1.07536   
     axis -90 7.62852e-016 20   XYZ
    dof rx
    limits (-90.0 20.0)
  end
  begin
     id 6 
     name rhipjoint
     direction -0.700219 -0.612087 0.367481   
     length 2.54621  
     axis 0 0 0  XYZ 
  end
  begin
     id 7 
     name rfemur
     direction -0.34202 -0.939693 0   
     length 6.55353   
     axis 0 0 -20   XYZ
    dof rx ry rz
    limits (-160.0 20.0)
           (-70.0 70.0)
           (-70.0 60.0)
  end
  begin
     id 8 
     name rtibia
     direction -0.34202 -0.939693 0   
     length 6.8736   
     axis 0 0 -20   XYZ
    dof rx
    limits (-10.0 170.0)
 end
 begin
     id 9 
     name rfoot
     direction -0.0679995 -0.186827 0.980037   
     length 2.1218  
     axis -90 -7.62852e-016 -20   XYZ
    dof rx rz
    limits (-45.0 90.0)
           (-20.0 70.0)
  end
  begin
     id 10 
     name rtoes
     direction -1.53589e-011 -4.21772e-011 1   
     length 1.06864   
     axis -90 -7.62852e-016 -20   XYZ
    dof rx
    limits (-90.0 20.0)
  end
  begin
     id 11 
     name lowerback
     direction -0.0416607 0.996347 -0.0745409   
     length 2.12205   
     axis 0 0 0   XYZ
    dof rx ry rz
    limits (-20.0 45.0)
           (-30.0 30.0)
           (-30.0 30.0)
  end
  begin
     id 12 
     name upperback
     direction -0.000153993 0.999276 -0.0380568   
     length 2.12759   
     axis 0 0 0   XYZ
    dof rx ry rz
    limits (-20.0 45.0)
           (-30.0 30.0)
           (-30.0 30.0)
  end
  begin
     id 13 
     name thorax
     direction 0.0187671 0.999821 -0.00241421   
     length 2.13704   
     axis 0 0 0   XYZ
    dof rx ry rz
    limits (-20.0 45.0)
           (-30.0 30.0)
           (-30.0 30.0)
  end
  begin
     id 14 
     name lowerneck
     direction 0.0268157 0.964865 0.261374   
     length 1.65253   
     axis 0 0 0   XYZ
    dof rx ry rz
    limits (-20.0 45.0)
           (-30.0 30.0)
           (-30.0 30.0)
  end
  begin
     id 15 
     name upperneck
     direction 0.00263774 0.939908 -0.341418   
     length 1.72375   
     axis 0 0 0   XYZ
    dof rx ry rz
    limits (-20.0 45.0)
           (-30.0 30.0)
           (-30.0 30.0)
  end
  begin
     id 16
     name head
     direction -0.00526001 0.989001 -0.147818  
     length 1.74878  
     axis 0 0 0   XYZ
    dof rx ry rz
    limits (-20.0 45.0)
           (-30.0 30.0)
           (-30.0 30.0)
  end
  begin
     id 17 
     name lclavicle
     direction 0.881214 0.461162 -0.103884  
     length 3.25108  
     axis 0 0 0   XYZ
    dof ry rz
    limits (-20.0 10.0)
           (0.0 20.0)
  end
  begin
     id 18 
     name lhumerus
     direction 1 -4.4899e-011 3.38092e-027   
     length 4.87408   
     axis 180 -30 -90   XYZ
    dof rx ry rz
    limits (-60.0 90.0)
           (-90.0 90.0)
           (-90.0 90.0)
  end
  begin
     id 19
     name lradius
     direction 1 -4.48931e-011 9.96288e-027   
     length 2.76729   
     axis 180 -30 -90   XYZ
    dof rx
    limits (-10.0 170.0)
  end
  begin
     id 20
     name lwrist
     direction 1 -4.4896e-011 1.50617e-026   
     length 1.38364   
     axis -9.31234e-015 90 90   XYZ
    dof ry
    limits (-180.0 0.0)
 end
  begin
     id 21 
     name lhand
     direction 1 -4.49038e-011 3.01286e-026   
     length 0.98922   
     axis -1.92217e-014 90 90   XYZ
    dof rx rz
    limits (-90.0 90.0)
           (-45.0 45.0)
  end
  begin
     id 22 
     name lfingers
     direction 1 -4.49051e-011 6.02588e-026   
     length 0.797535   
     axis -3.84436e-014 90 90   XYZ
    dof rx
    limits (0.0 90.0)
  end
  begin
     id 23
     name lthumb
     direction 0.707107 -6.34901e-011 0.707107   
     length 1.14511   
     axis -90 45 2.19363e-014   XYZ
    dof rx rz
    limits (-45.0 45.0)
           (-45.0 45.0)
  end
  begin
     id 24 
     name rclavicle
     direction -0.893894 0.441652 -0.0767889   
     length 3.29361  
     axis 0 0 0   XYZ 
    dof ry rz
    limits (-10.0 20.0)
           (-20.0 0.0)
  end
  begin
     id 25 
     name rhumerus
     direction -1 -4.48945e-011 8.0491e-028  
     length 4.71404   
     axis 180 30 90   XYZ
    dof rx ry rz
    limits (-90.0 60.0)
           (-90.0 90.0)
           (-90.0 90.0)
  end
  begin
     id 26 
     name rradius
     direction -1 -4.48986e-011 9.27795e-027   
     length 2.83468   
     axis 180 30 90   XYZ
    dof rx
    limits (-10.0 170.0)
  end
  begin
     id 27 
     name rwrist
     direction -1 -4.49029e-011 1.5064e-026   
     length 1.41734   
     axis -9.31234e-015 -90 -90   XYZ
    dof ry
    limits (-180.0 0.0)
  end
  begin
     id 28
     name rhand
     direction -1 -4.48857e-011 3.01165e-026   
     length 0.868195   
     axis -1.92217e-014 -90 -90   XYZ
    dof rx rz
    limits (-90.0 90.0)
           (-45.0 45.0)
  end
  begin
     id 29
     name rfingers
     direction -1 -4.49048e-011 6.02585e-026   
     length 0.699961   
     axis -3.84436e-014 -90 -90   XYZ
    dof rx
    limits (0.0 90.0)
  end
  begin
     id 30
     name rthumb
     direction -0.707107 -6.34854e-011 0.707107   
     length 1.00501   
     axis -90 -45 -2.19363e-014   XYZ
    dof rx rz
    limits (-45.0 45.0)
           (-45.0 45.0)
  end
:hierarchy
  begin
    root lhipjoint rhipjoint lowerback
    lhipjoint lfemur
    lfemur ltibia
    ltibia lfoot
    lfoot ltoes
    rhipjoint rfemur
    rfemur rtibia
    rtibia rfoot
    rfoot rtoes
    lowerback upperback
    upperback thorax
    thorax lowerneck lclavicle rclavicle
    lowerneck upperneck
    upperneck head
    lclavicle lhumerus
    lhumerus lradius
    lradius lwrist
    lwrist lhand lthumb
    lhand lfingers
    rclavicle rhumerus
    rhumerus rradius
    rradius rwrist
    rwrist rhand rthumb
    rhand rfingers
  end

#!OML:ASF H:\ManfredObstacles\Project 1\Capture day 2\Session 1\male.ASF
:FULLY-SPECIFIED
:DEGREES
17
root 0.953456 15.3733 29.4676 -180.212 5.49063 -183.403
lowerback -2.59851 4.07772 -5.5786
upperback 2.08611 5.90276 -2.33331
thorax 3.30542 2.8971 1.00563
lowerneck -29.5127 0.40188 -1.11681
upperneck 45.8641 -7.77065 4.46431
head 28.1813 -3.87347 -0.283455
rclavicle 8.94531e-016 3.97569e-015
rhumerus -38.9658 12.7552 -97.4562
rradius 87.533
rwrist 10.7464
rhand -9.27571 -3.49679
rfingers 7.12502
rthumb 16.681 -32.8
lclavicle 8.94531e-016 3.97569e-015
lhumerus -66.026 -20.5752 89.5928
lradius 86.5232
lwrist -18.6792
lhand -15.9115 5.72826
lfingers 7.12502
lthumb 10.2855 35.4568
rfemur 0.105572 -1.85229 16.2168
rtibia 64.7079
rfoot 15.7908 -18.0406
rtoes -14.5159
lfemur -24.9424 -1.87069 -26.492
ltibia 40.4481
lfoot 5.80596 18.6029
ltoes 0.137546
18
root 0.938902 15.3282 29.2872 -180.598 5.73104 -183.924
lowerback -2.33689 4.02753 -5.90509
upperback 2.32789 5.87705 -2.51007
thorax 3.4008 2.88459 0.992051
lowerneck -29.5504 0.442914 -0.967476
upperneck 45.7304 -7.61779 4.35786
head 27.9582 -3.78634 -0.318722
rclavicle -2.05245e-014 -3.18055e-015
rhumerus -39.2847 11.1654 -97.017
rradius 85.9594
rwrist 11.2707
rhand -9.56643 -4.0019
rfingers 7.12502
rthumb 16.4011 -33.3285
lclavicle -2.05245e-014 -3.18055e-015
lhumerus -63.9986 -20.2988 89.5073
lradius 85.6782
lwrist -19.391
lhand -15.8776 5.95167
lfingers 7.12502
lthumb 10.3182 35.6786
rfemur -1.68959 -1.44159 15.6719
rtibia 67.8308
rfoot 14.8329 -18.3427
rtoes -14.4616
lfemur -24.0289 -1.63075 -27.2279
ltibia 40.9338
lfoot 4.93273 19.5506
ltoes 0.347207
19
root 0.923046 15.294 29.1126 -180.826 5.99206 -184.135
lowerback -2.18649 3.98332 -5.8831
upperback 2.51997 5.83796 -2.62023
thorax 3.53301 2.86826 0.863145
lowerneck -29.5783 0.501318 -0.869626
upperneck 45.6559 -7.47158 4.27475
head 27.829 -3.71882 -0.337039
rclavicle -3.74212e-014 1.51076e-014
rhumerus -39.6818 9.51719 -96.4983
rradius 84.3447
rwrist 11.9211
rhand -9.84233 -4.37948
rfingers 7.12502
rthumb 16.1355 -33.7278
lclavicle -3.74212e-014 1.51076e-014
lhumerus -61.9905 -19.9602 89.4016
lradius 84.9667
lwrist -20.1193
lhand -15.8155 5.87653
lfingers 7.12502
lthumb 10.3782 35.6004
rfemur -3.64968 -0.946371 15.539
rtibia 70.6455
rfoot 14.0066 -18.5931
rtoes -14.5065
lfemur -23.289 -1.31284 -27.6108
ltibia 41.4231
lfoot 4.11967 20.3362
ltoes 0.345573
20
root 0.906122 15.2705 28.9429 -180.932 6.24702 -184.113
lowerback -2.06305 3.9256 -5.59101
upperback 2.62548 5.75632 -2.69925
thorax 3.61287 2.83653 0.61547
lowerneck -29.5344 0.603708 -0.82336
upperneck 45.6778 -7.35265 4.25872
head 27.818 -3.68319 -0.321253
rclavicle 2.18663e-015 -4.77083e-015
rhumerus -40.2304 7.85158 -95.9653
rradius 82.7415
rwrist 12.5728
rhand -10.1361 -4.64049
rfingers 7.12502
rthumb 15.8526 -34.0115
lclavicle 2.18663e-015 -4.77083e-015
lhumerus -60.1232 -19.5536 89.284
lradius 84.4224
lwrist -20.7545
lhand -15.7862 5.51219
lfingers 7.12502
lthumb 10.4064 35.2347
rfemur -5.72158 -0.398544 15.7158
rtibia 73.1418
rfoot 13.2853 -18.8098
rtoes -14.6819
lfemur -22.6828 -0.970214 -27.7342
ltibia 41.9059
lfoot 3.39026 20.9803
ltoes 0.146834
21
root 0.889386 15.2571 28.7785 -180.966 6.43588 -184.005
lowerback -1.91197 3.82035 -5.21833
upperback 2.66689 5.59669 -2.7612
thorax 3.61753 2.76897 0.332914
lowerneck -29.4358 0.749086 -0.840307
upperneck 45.7787 -7.22899 4.29729
head 27.9041 -3.66957 -0.265031
rclavicle 2.09221e-014 1.11319e-014
rhumerus -40.8753 6.26605 -95.4097
rradius 81.1211
rwrist 13.0755
rhand -10.4882 -4.74015
rfingers 7.12502
rthumb 15.5134 -34.1378
lclavicle 2.09221e-014 1.11319e-014
lhumerus -58.411 -19.0496 89.183
lradius 84.0468
lwrist -21.2714
lhand -15.8253 4.88152
lfingers 7.12502
lthumb 10.3687 34.6059
rfemur -7.85462 0.124341 16.015
rtibia 75.3322
rfoot 12.64 -18.9795
rtoes -14.9582
lfemur -22.1382 -0.677325 -27.7614
ltibia 42.3252
lfoot 2.75284 21.4931
ltoes -0.184891
22
root 0.874297 15.2531 28.6193 -180.987 6.53231 -183.963
lowerback -1.68443 3.65536 -4.9584
upperback 2.66376 5.35394 -2.82356
thorax 3.52348 2.6598 0.100564
lowerneck -29.3169 0.947839 -0.803474
upperneck 45.9096 -7.03986 4.28944
head 28.0028 -3.63461 -0.230027
rclavicle 4.81556e-014 -2.46493e-014
rhumerus -41.5965 4.82623 -94.8117
rradius 79.4902
rwrist 13.3545
rhand -10.8931 -4.68122
rfingers 7.12502
rthumb 15.1235 -34.1087
lclavicle 4.81556e-014 -2.46493e-014
lhumerus -56.8587 -18.4644 89.1395
lradius 83.8364
lwrist -21.6652
lhand -15.8995 4.11518
lfingers 7.12502
lthumb 10.2971 33.8431
rfemur -9.99383 0.56767 16.2386
rtibia 77.2369
rfoot 11.9907 -19.1022
rtoes -15.3835
lfemur -21.5709 -0.466779 -27.8576
ltibia 42.6137
lfoot 2.25108 21.8688
ltoes -0.642027
23
root 0.861713 15.2577 28.4657 -181.048 6.52842 -184.06
lowerback -1.3711 3.43493 -4.90213
upperback 2.6437 5.04088 -2.89195
thorax 3.34721 2.51324 -0.0347239
lowerneck -29.1522 1.18888 -0.718481
upperneck 46.0618 -6.79168 4.22896
head 28.0887 -3.58196 -0.220404
rclavicle -1.59028e-015 2.54444e-014
rhumerus -42.3483 3.55262 -94.1568
rradius 77.8221
rwrist 13.3505
rhand -11.3688 -4.53259
rfingers 7.12502
rthumb 14.6652 -33.994
lclavicle -1.59028e-015 2.54444e-014
lhumerus -55.4535 -17.8568 89.1869
lradius 83.7716
lwrist -22.0126
lhand -15.9934 3.37231
lfingers 7.12502
lthumb 10.2065 33.1047
rfemur -12.0929 0.904152 16.2942
rtibia 78.8688
rfoot 11.3205 -19.1939
rtoes -15.8108
lfemur -20.9125 -0.345999 -28.0987
ltibia 42.7197
lfoot 1.89612 22.1098
ltoes -1.19118
24
root 0.851801 15.269 28.3172 -181.172 6.43254 -184.293
lowerback -0.982172 3.16524 -5.04588
upperback 2.64503 4.66772 -2.95854
thorax 3.13637 2.33376 -0.0618076
lowerneck -28.985 1.45301 -0.585287
upperneck 46.1992 -6.46777 4.09631
head 28.1295 -3.49939 -0.240278
rclavicle -4.87519e-014 3.18055e-015
rhumerus -43.0543 2.45859 -93.4264
rradius 76.0944
rwrist 13.1368
rhand -11.7517 -4.36602
rfingers 7.12502
rthumb 14.2963 -33.8539
lclavicle -4.87519e-014 3.18055e-015
lhumerus -54.1357 -17.2631 89.3204
lradius 83.8228
lwrist -22.363
lhand -16.1096 2.75287
lfingers 7.12502
lthumb 10.0944 32.4907
rfemur -14.1096 1.13583 16.1821
rtibia 80.2311
rfoot 10.5582 -19.3199
rtoes -16.2126
lfemur -20.1246 -0.311717 -28.48
ltibia 42.6309
lfoot 1.67294 22.2346
ltoes -1.79026
25
root 0.844253 15.2858 28.1731 -181.343 6.23091 -184.603
lowerback -0.553302 2.8467 -5.33179
upperback 2.68552 4.23277 -3.00538
thorax 2.93612 2.12043 0.0110661
lowerneck -28.9243 1.73719 -0.41431
upperneck 46.3525 -6.08467 3.88846
head 28.2376 -3.39254 -0.299155
rclavicle -1.13307e-014 1.66979e-014
rhumerus -43.6717 1.55261 -92.6173
rradius 74.3247
rwrist 12.7637
rhand -11.9779 -4.26478
rfingers 7.12502
rthumb 14.0783 -33.7679
lclavicle -1.13307e-014 1.66979e-014
lhumerus -52.8587 -16.7173 89.5349
lradius 83.9698
lwrist -22.7279
lhand -16.2267 2.32779
lfingers 7.12502
lthumb 9.98148 32.0711
rfemur -16.0364 1.24398 15.9664
rtibia 81.3145
rfoot 9.72259 -19.4951
rtoes -16.5495
lfemur -19.229 -0.37811 -28.9408
ltibia 42.3698
lfoot 1.57603 22.2634
ltoes -2.4096
26
root 0.838614 15.307 28.0314 -181.525 5.95938 -184.914
lowerback -0.197349 2.496 -5.66795
upperback 2.79601 3.76392 -3.01738
thorax 2.84958 1.88577 0.157759
lowerneck -28.8825 2.02046 -0.23418
upperneck 46.4749 -5.65215 3.63952
head 28.3065 -3.26557 -0.36777
rclavicle -2.43014e-014 3.18055e-015
rhumerus -44.1513 0.801211 -91.7292
rradius 72.5215
rwrist 12.3279
rhand -12.0082 -4.3146
rfingers 7.12502
rthumb 14.0491 -33.8198
lclavicle -2.43014e-014 3.18055e-015
lhumerus -51.5501 -16.2592 89.8145
lradius 84.1914
lwrist -23.0419
lhand -16.3149 2.12225
lfingers 7.12502
lthumb 9.89639 31.8696
rfemur -17.8851 1.27458 15.7387
rtibia 82.1125
rfoot 8.83358 -19.7503
rtoes -16.9647
lfemur -18.2684 -0.516245 -29.4004
ltibia 41.9822
lfoot 1.58441 22.2305
ltoes -3.02271
27
root 0.834522 15.3315 27.892 -181.692 5.59829 -185.169
lowerback 0.127385 2.11049 -5.97975
upperback 2.9466 3.24983 -2.99613
thorax 2.82909 1.62626 0.330881
lowerneck -28.9086 2.29932 -0.0794485
upperneck 46.5888 -5.19937 3.38937
head 28.4103 -3.1329 -0.42632
rclavicle 2.99668e-014 -7.95139e-015
rhumerus -44.5346 0.181081 -90.7926
rradius 70.7216
rwrist 11.9225
rhand -11.8005 -4.52842
rfingers 7.12502
rthumb 14.2493 -34.0196
lclavicle 2.99668e-014 -7.95139e-015
lhumerus -50.2303 -15.9086 90.1308
lradius 84.4779
lwrist -23.2472
lhand -16.3818 2.08301
lfingers 7.12502
lthumb 9.83183 31.8335
rfemur -19.6594 1.21568 15.5625
rtibia 82.6172
rfoot 7.92338 -20.0684
rtoes -17.4886
lfemur -17.285 -0.739715 -29.8019
ltibia 41.5171
lfoot 1.65574 22.1506
ltoes -3.58806
